<svg xmlns="http://www.w3.org/2000/svg" xmlns:xlink="http://www.w3.org/1999/xlink" xml:space="preserve" width="96" height="230.031" viewBox="0 0 25.4 60.862"><defs><linearGradient id="c"><stop offset="0" style="stop-color:#b7b7b7;stop-opacity:1"/></linearGradient><linearGradient id="a"><stop offset="0" style="stop-color:#d6b142;stop-opacity:1"/></linearGradient><linearGradient id="b" gradientTransform="translate(-25.307 -10.994)"><stop offset="0" style="stop-color:#000;stop-opacity:1"/></linearGradient><linearGradient xlink:href="#a" id="e" x1="5.07" x2="6.27" y1="39.565" y2="39.565" gradientTransform="translate(9.93 6.57)" gradientUnits="userSpaceOnUse"/><linearGradient xlink:href="#a" id="k" x1="131.596" x2="132.096" y1="61.371" y2="61.371" gradientTransform="matrix(1.2 0 0 1 -24.512 .53)" gradientUnits="userSpaceOnUse"/><linearGradient xlink:href="#a" id="l" x1="135.493" x2="140.403" y1="68.213" y2="68.213" gradientTransform="translate(-3.41 -3.717)" gradientUnits="userSpaceOnUse"/><linearGradient xlink:href="#a" id="m" x1="135.493" x2="140.403" y1="68.213" y2="68.213" gradientTransform="translate(5.23 -3.717)" gradientUnits="userSpaceOnUse"/><linearGradient xlink:href="#a" id="n" x1="135.493" x2="140.403" y1="68.213" y2="68.213" gradientTransform="translate(5.23 .494)" gradientUnits="userSpaceOnUse"/><linearGradient xlink:href="#a" id="o" x1="135.493" x2="140.403" y1="68.213" y2="68.213" gradientTransform="translate(-3.41 .494)" gradientUnits="userSpaceOnUse"/><linearGradient xlink:href="#a" id="p" x1="31.611" x2="32.511" y1="38.838" y2="38.838" gradientTransform="translate(-75.27 -33.35)" gradientUnits="userSpaceOnUse"/><linearGradient xlink:href="#a" id="q" x1="34.111" x2="35.011" y1="38.838" y2="38.838" gradientTransform="translate(-75.27 -33.35)" gradientUnits="userSpaceOnUse"/><linearGradient xlink:href="#a" id="r" x1="31.611" x2="32.511" y1="40.838" y2="40.838" gradientTransform="translate(-75.27 -33.35)" gradientUnits="userSpaceOnUse"/><linearGradient xlink:href="#a" id="s" x1="34.111" x2="35.011" y1="40.838" y2="40.838" gradientTransform="translate(-75.27 -33.35)" gradientUnits="userSpaceOnUse"/><linearGradient xlink:href="#b" id="t" x1="16.075" x2="19.075" y1="26.532" y2="26.532" gradientTransform="translate(0 6.56)" gradientUnits="userSpaceOnUse"/><linearGradient xlink:href="#b" id="u" x1="20.029" x2="22.029" y1="34.669" y2="34.669" gradientTransform="translate(0 6.56)" gradientUnits="userSpaceOnUse"/><linearGradient xlink:href="#b" id="v" x1="13.5" x2="16.5" y1="43.5" y2="43.5" gradientTransform="translate(0 6.56)" gradientUnits="userSpaceOnUse"/><linearGradient xlink:href="#b" id="w" x1="8.9" x2="11.9" y1="43.5" y2="43.5" gradientTransform="translate(0 6.56)" gradientUnits="userSpaceOnUse"/><linearGradient xlink:href="#b" id="x" x1="12.731" x2="15.131" y1="25.146" y2="25.146" gradientTransform="translate(0 6.56)" gradientUnits="userSpaceOnUse"/><linearGradient xlink:href="#b" id="z" x1="38.923" x2="41.463" y1="32.111" y2="32.111" gradientUnits="userSpaceOnUse"/><linearGradient xlink:href="#a" id="A" x1="39.873" x2="40.513" y1="33.073" y2="33.073" gradientTransform="translate(-35.324 -1.07)" gradientUnits="userSpaceOnUse"/><linearGradient xlink:href="#a" id="B" x1="42.413" x2="43.053" y1="33.073" y2="33.073" gradientTransform="translate(-35.324 -1.07)" gradientUnits="userSpaceOnUse"/><linearGradient xlink:href="#b" id="C" x1="3.599" x2="8.679" y1="28.994" y2="28.994" gradientTransform="translate(0 6.56)" gradientUnits="userSpaceOnUse"/><linearGradient xlink:href="#a" id="d" x1="5.07" x2="6.27" y1="39.565" y2="39.565" gradientTransform="translate(-.07 6.57)" gradientUnits="userSpaceOnUse"/><linearGradient xlink:href="#a" id="f" x1="131.596" x2="132.096" y1="61.371" y2="61.371" gradientTransform="matrix(1.2 0 0 1 -24.512 .53)" gradientUnits="userSpaceOnUse"/><linearGradient xlink:href="#a" id="g" x1="135.493" x2="140.403" y1="68.213" y2="68.213" gradientTransform="translate(-3.41 -3.717)" gradientUnits="userSpaceOnUse"/><linearGradient xlink:href="#a" id="h" x1="135.493" x2="140.403" y1="68.213" y2="68.213" gradientTransform="translate(5.23 -3.717)" gradientUnits="userSpaceOnUse"/><linearGradient xlink:href="#a" id="i" x1="135.493" x2="140.403" y1="68.213" y2="68.213" gradientTransform="translate(5.23 .494)" gradientUnits="userSpaceOnUse"/><linearGradient xlink:href="#a" id="j" x1="135.493" x2="140.403" y1="68.213" y2="68.213" gradientTransform="translate(-3.41 .494)" gradientUnits="userSpaceOnUse"/><linearGradient xlink:href="#b" id="y" x1="38.923" x2="41.463" y1="32.111" y2="32.111" gradientUnits="userSpaceOnUse"/><linearGradient xlink:href="#c" id="D" gradientTransform="translate(-54.146 4.088)" gradientUnits="userSpaceOnUse"/></defs><rect width="25.4" height="53.6" y="6.56" rx=".6" ry=".6" style="fill:#212121;fill-opacity:1;stroke-width:1.2;stroke-linecap:round;paint-order:stroke fill markers"/><path d="M37.887-10.475h1.747v.974h-1.747z" style="fill:#dbddda;stroke-width:.264583" transform="rotate(90)"/><path d="M38.105-10.475h1.31v.974h-1.31z" style="fill:#958863;stroke-width:.264583" transform="rotate(90)"/><path d="M35.758-12.55h1.747v.974h-1.747z" style="fill:#dbddda;stroke-width:.264583" transform="rotate(90)"/><path d="M35.976-12.55h1.31v.974h-1.31z" style="fill:#958863;stroke-width:.264583" transform="rotate(90)"/><path d="M34.695-15.883h1.747v.974h-1.747z" style="fill:#dbddda;stroke-width:.264583" transform="rotate(90)"/><path d="M34.913-15.883h1.31v.974h-1.31z" style="fill:#958863;stroke-width:.264583" transform="rotate(90)"/><path d="M-20.769-38.105h1.747v.974h-1.747z" style="fill:#dbddda;stroke-width:.264583" transform="scale(-1)"/><path d="M-20.55-38.105h1.31v.974h-1.31z" style="fill:#958863;stroke-width:.264583" transform="scale(-1)"/><path d="M-13.156-46.734h1.747v.974h-1.747z" style="fill:#dbddda;stroke-width:.264583" transform="scale(-1)"/><path d="M-12.937-46.734h1.31v.974h-1.31z" style="fill:#958863;stroke-width:.264583" transform="scale(-1)"/><path d="M-13.156-48.302h1.747v.974h-1.747z" style="fill:#dbddda;stroke-width:.264583" transform="scale(-1)"/><path d="M-12.937-48.302h1.31v.974h-1.31z" style="fill:#958863;stroke-width:.264583" transform="scale(-1)"/><path d="M32.346-11.788h1.747v.974h-1.747z" style="fill:#dbddda;stroke-width:.264583" transform="rotate(90)"/><path d="M32.564-11.788h1.31v.974h-1.31z" style="fill:#958863;stroke-width:.264583" transform="rotate(90)"/><path d="M29.337-11.788h1.747v.974h-1.747z" style="fill:#dbddda;stroke-width:.264583" transform="rotate(90)"/><path d="M29.556-11.788h1.31v.974h-1.31z" style="fill:#958863;stroke-width:.264583" transform="rotate(90)"/><path d="M.97 7.56h.6c.388 0 .7.312.7.7s-.312.7-.7.7h-.6a.7.7 0 0 1-.7-.7c0-.388.312-.7.7-.7m22.86 0h.6c.388 0 .7.312.7.7s-.312.7-.7.7h-.6a.7.7 0 0 1-.7-.7c0-.388.312-.7.7-.7M.97 10.1h.6c.388 0 .7.312.7.7s-.312.7-.7.7h-.6a.7.7 0 0 1-.7-.7c0-.388.312-.7.7-.7m22.86 0h.6c.388 0 .7.312.7.7s-.312.7-.7.7h-.6a.7.7 0 0 1-.7-.7c0-.388.312-.7.7-.7M.97 12.64h.6c.388 0 .7.312.7.7s-.312.7-.7.7h-.6a.7.7 0 0 1-.7-.7c0-.388.312-.7.7-.7m22.86 0h.6c.388 0 .7.312.7.7s-.312.7-.7.7h-.6a.7.7 0 0 1-.7-.7c0-.388.312-.7.7-.7M.97 15.18h.6c.388 0 .7.312.7.7s-.312.7-.7.7h-.6a.7.7 0 0 1-.7-.7c0-.388.312-.7.7-.7m22.86 0h.6c.388 0 .7.312.7.7s-.312.7-.7.7h-.6a.7.7 0 0 1-.7-.7c0-.388.312-.7.7-.7M.97 17.72h.6c.388 0 .7.312.7.7s-.312.7-.7.7h-.6a.7.7 0 0 1-.7-.7c0-.388.312-.7.7-.7m22.86 0h.6c.388 0 .7.312.7.7s-.312.7-.7.7h-.6a.7.7 0 0 1-.7-.7c0-.388.312-.7.7-.7M.97 20.26h.6c.388 0 .7.312.7.7s-.312.7-.7.7h-.6a.7.7 0 0 1-.7-.7c0-.388.312-.7.7-.7m22.86 0h.6c.388 0 .7.312.7.7s-.312.7-.7.7h-.6a.7.7 0 0 1-.7-.7c0-.388.312-.7.7-.7M.97 22.8h.6c.388 0 .7.312.7.7s-.312.7-.7.7h-.6a.7.7 0 0 1-.7-.7c0-.388.312-.7.7-.7m22.86 0h.6c.388 0 .7.312.7.7s-.312.7-.7.7h-.6a.7.7 0 0 1-.7-.7c0-.388.312-.7.7-.7M.97 25.34h.6c.388 0 .7.312.7.7s-.312.7-.7.7h-.6a.7.7 0 0 1-.7-.7c0-.388.312-.7.7-.7m22.86 0h.6c.388 0 .7.312.7.7s-.312.7-.7.7h-.6a.7.7 0 0 1-.7-.7c0-.388.312-.7.7-.7M.97 27.88h.6c.388 0 .7.312.7.7s-.312.7-.7.7h-.6a.7.7 0 0 1-.7-.7c0-.388.312-.7.7-.7m22.86 0h.6c.388 0 .7.312.7.7s-.312.7-.7.7h-.6a.7.7 0 0 1-.7-.7c0-.388.312-.7.7-.7M.97 30.42h.6c.388 0 .7.312.7.7s-.312.7-.7.7h-.6a.7.7 0 0 1-.7-.7c0-.388.312-.7.7-.7m22.86 0h.6c.388 0 .7.312.7.7s-.312.7-.7.7h-.6a.7.7 0 0 1-.7-.7c0-.388.312-.7.7-.7M.97 32.96h.6c.388 0 .7.312.7.7s-.312.7-.7.7h-.6a.7.7 0 0 1-.7-.7c0-.388.312-.7.7-.7m22.86 0h.6c.388 0 .7.312.7.7s-.312.7-.7.7h-.6a.7.7 0 0 1-.7-.7c0-.388.312-.7.7-.7M.97 35.5h.6c.388 0 .7.312.7.7s-.312.7-.7.7h-.6a.7.7 0 0 1-.7-.7c0-.388.312-.7.7-.7m22.86 0h.6c.388 0 .7.312.7.7s-.312.7-.7.7h-.6a.7.7 0 0 1-.7-.7c0-.388.312-.7.7-.7M.97 38.04h.6c.388 0 .7.312.7.7s-.312.7-.7.7h-.6a.7.7 0 0 1-.7-.7c0-.388.312-.7.7-.7m22.86 0h.6c.388 0 .7.312.7.7s-.312.7-.7.7h-.6a.7.7 0 0 1-.7-.7c0-.388.312-.7.7-.7M.97 40.58h.6c.388 0 .7.312.7.7s-.312.7-.7.7h-.6a.7.7 0 0 1-.7-.7c0-.388.312-.7.7-.7m22.86 0h.6c.388 0 .7.312.7.7s-.312.7-.7.7h-.6a.7.7 0 0 1-.7-.7c0-.388.312-.7.7-.7M.97 43.12h.6c.388 0 .7.312.7.7s-.312.7-.7.7h-.6a.7.7 0 0 1-.7-.7c0-.388.312-.7.7-.7m22.86 0h.6c.388 0 .7.312.7.7s-.312.7-.7.7h-.6a.7.7 0 0 1-.7-.7c0-.388.312-.7.7-.7M.97 45.66h.6c.388 0 .7.312.7.7s-.312.7-.7.7h-.6a.7.7 0 0 1-.7-.7c0-.388.312-.7.7-.7m22.86 0h.6c.388 0 .7.312.7.7s-.312.7-.7.7h-.6a.7.7 0 0 1-.7-.7c0-.388.312-.7.7-.7" style="fill:#d6b142;fill-opacity:1;stroke-width:1.2;stroke-linecap:round;paint-order:stroke fill markers"/><path d="M3.2 7.56h1.5v.9H3.2Zm17.5 0h1.5v.9h-1.5zM3.2 8.83h1.5v.9H3.2Zm17.5 0h1.5v.9h-1.5zM3.2 10.1h1.5v.9H3.2Zm17.5 0h1.5v.9h-1.5zM3.2 11.37h1.5v.9H3.2Zm17.5 0h1.5v.9h-1.5zM3.2 12.64h1.5v.9H3.2Zm17.5 0h1.5v.9h-1.5zM3.2 13.91h1.5v.9H3.2Zm17.5 0h1.5v.9h-1.5zM3.2 15.18h1.5v.9H3.2Zm17.5 0h1.5v.9h-1.5zM3.2 16.45h1.5v.9H3.2Zm17.5 0h1.5v.9h-1.5zM3.2 17.72h1.5v.9H3.2Zm17.5 0h1.5v.9h-1.5zM3.2 18.99h1.5v.9H3.2Zm17.5 0h1.5v.9h-1.5zM3.2 20.26h1.5v.9H3.2Zm17.5 0h1.5v.9h-1.5zM3.2 21.53h1.5v.9H3.2Zm17.5 0h1.5v.9h-1.5zM3.2 22.8h1.5v.9H3.2Zm17.5 0h1.5v.9h-1.5zM3.2 24.07h1.5v.9H3.2Zm17.5 0h1.5v.9h-1.5z" style="fill:#907520;fill-opacity:1;stroke-width:1.2;stroke-linecap:round;paint-order:stroke fill markers"/><path d="M12.9 38.76h.4v1h-.4zm.5 0h.4v1h-.4zm.5 0h.4v1h-.4zm.5 0h.4v1h-.4zm.5 0h.4v1h-.4zm.5 0h.4v1h-.4zm.5 0h.4v1h-.4zm-4.112 4.54v-.4h1v.4zm0-.5v-.4h1v.4zm0-.5v-.4h1v.4zm0-.5v-.4h1v.4zm0-.5v-.4h1v.4zm0-.5v-.4h1v.4zm0-.5v-.4h1v.4zm4.54 4.113h-.4v-1h.4zm-.5 0h-.4v-1h.4zm-.5 0h-.4v-1h.4zm-.5 0h-.4v-1h.4zm-.5 0h-.4v-1h.4zm-.5 0h-.4v-1h.4zm-.5 0h-.4v-1h.4zm4.113-4.54v.4h-1v-.4zm0 .5v.4h-1v-.4zm0 .5v.4h-1v-.4zm0 .5v.4h-1v-.4zm0 .5v.4h-1v-.4zm0 .5v.4h-1v-.4zm0 .5v.4h-1v-.4z" style="fill:#d6b142;fill-opacity:1;stroke-width:1.2;stroke-linecap:round;paint-order:stroke fill markers"/><path d="M12.063 39.09h5v5h-5z" style="fill:#000;fill-opacity:1;stroke-width:1.2;stroke-linecap:round;paint-order:stroke fill markers"/><path d="M5 45.76h1.2v.75H5zm4.2 0h1.2v.75H9.2ZM5 47.91h1.2v.75H5zm4.2 0h1.2v.75H9.2Z" style="fill:url(#d);fill-opacity:1;stroke-width:1.2;stroke-linecap:round;paint-order:stroke fill markers"/><path d="M15 45.76h1.2v.75H15zm4.2 0h1.2v.75h-1.2zM15 47.91h1.2v.75H15zm4.2 0h1.2v.75h-1.2z" style="fill:url(#e);fill-opacity:1;stroke-width:1.2;stroke-linecap:round;paint-order:stroke fill markers"/><path d="M133.403 61.325v1.15h.6v-1.15zm.8 0v1.15h.6v-1.15zm.8 0v1.15h.3v-1.15zm.5 0v1.15h.3v-1.15zm.5 0v1.15h.3v-1.15zm.5 0v1.15h.3v-1.15zm.5 0v1.15h.3v-1.15zm.5 0v1.15h.3v-1.15zm.5 0v1.15h.3v-1.15zm.5 0v1.15h.3v-1.15zm.5 0v1.15h.6v-1.15zm.8 0v1.15h.6v-1.15z" style="opacity:1;fill:url(#f);stroke-width:1.20001;stroke-linecap:round;paint-order:stroke fill markers" transform="translate(-131.303 -8.765)"/><path d="M132.583 61.426c-.277 0-.5.222-.5.5v1.1a.499.499 0 1 0 1 0v-1.1c0-.278-.223-.5-.5-.5m0 .2c.166 0 .3.133.3.3v1.1c0 .166-.134.3-.3.3a.3.3 0 0 1-.3-.3v-1.1a.3.3 0 0 1 .3-.3" style="opacity:1;fill:url(#g);stroke-width:1.2;stroke-linecap:round;paint-order:stroke fill markers" transform="translate(-131.303 -8.765)"/><path d="M141.223 61.426c-.277 0-.5.222-.5.5v1.1a.499.499 0 1 0 1 0v-1.1c0-.278-.223-.5-.5-.5m0 .2c.166 0 .3.133.3.3v1.1c0 .166-.134.3-.3.3a.3.3 0 0 1-.3-.3v-1.1a.3.3 0 0 1 .3-.3" style="fill:url(#h);stroke-width:1.2;stroke-linecap:round;paint-order:stroke fill markers" transform="translate(-131.303 -8.765)"/><path d="M141.223 65.636c-.277 0-.5.223-.5.5v.8a.499.499 0 1 0 1 0v-.8c0-.277-.223-.5-.5-.5m0 .2c.166 0 .3.134.3.3v.8c0 .167-.134.3-.3.3a.3.3 0 0 1-.3-.3v-.8a.3.3 0 0 1 .3-.3" style="fill:url(#i);stroke-width:1.2;stroke-linecap:round;paint-order:stroke fill markers" transform="translate(-131.303 -8.765)"/><path d="M132.583 65.636c-.277 0-.5.223-.5.5v.8a.499.499 0 1 0 1 0v-.8c0-.277-.223-.5-.5-.5m0 .2c.166 0 .3.134.3.3v.8c0 .167-.134.3-.3.3a.3.3 0 0 1-.3-.3v-.8a.3.3 0 0 1 .3-.3" style="fill:url(#j);stroke-width:1.2;stroke-linecap:round;paint-order:stroke fill markers" transform="translate(-131.303 -8.765)"/><path d="M133.403 61.325v1.15h.6v-1.15zm.8 0v1.15h.6v-1.15zm.8 0v1.15h.3v-1.15zm.5 0v1.15h.3v-1.15zm.5 0v1.15h.3v-1.15zm.5 0v1.15h.3v-1.15zm.5 0v1.15h.3v-1.15zm.5 0v1.15h.3v-1.15zm.5 0v1.15h.3v-1.15zm.5 0v1.15h.3v-1.15zm.5 0v1.15h.6v-1.15zm.8 0v1.15h.6v-1.15z" style="opacity:1;fill:url(#k);stroke-width:1.20001;stroke-linecap:round;paint-order:stroke fill markers" transform="translate(-117.103 -8.765)"/><path d="M132.583 61.426c-.277 0-.5.222-.5.5v1.1a.499.499 0 1 0 1 0v-1.1c0-.278-.223-.5-.5-.5m0 .2c.166 0 .3.133.3.3v1.1c0 .166-.134.3-.3.3a.3.3 0 0 1-.3-.3v-1.1a.3.3 0 0 1 .3-.3" style="opacity:1;fill:url(#l);stroke-width:1.2;stroke-linecap:round;paint-order:stroke fill markers" transform="translate(-117.103 -8.765)"/><path d="M141.223 61.426c-.277 0-.5.222-.5.5v1.1a.499.499 0 1 0 1 0v-1.1c0-.278-.223-.5-.5-.5m0 .2c.166 0 .3.133.3.3v1.1c0 .166-.134.3-.3.3a.3.3 0 0 1-.3-.3v-1.1a.3.3 0 0 1 .3-.3" style="fill:url(#m);stroke-width:1.2;stroke-linecap:round;paint-order:stroke fill markers" transform="translate(-117.103 -8.765)"/><path d="M141.223 65.636c-.277 0-.5.223-.5.5v.8a.499.499 0 1 0 1 0v-.8c0-.277-.223-.5-.5-.5m0 .2c.166 0 .3.134.3.3v.8c0 .167-.134.3-.3.3a.3.3 0 0 1-.3-.3v-.8a.3.3 0 0 1 .3-.3" style="fill:url(#n);stroke-width:1.2;stroke-linecap:round;paint-order:stroke fill markers" transform="translate(-117.103 -8.765)"/><path d="M132.583 65.636c-.277 0-.5.223-.5.5v.8a.499.499 0 1 0 1 0v-.8c0-.277-.223-.5-.5-.5m0 .2c.166 0 .3.134.3.3v.8c0 .167-.134.3-.3.3a.3.3 0 0 1-.3-.3v-.8a.3.3 0 0 1 .3-.3" style="fill:url(#o);stroke-width:1.2;stroke-linecap:round;paint-order:stroke fill markers" transform="translate(-117.103 -8.765)"/><path d="M63.666 50.227v2.724a.21.21 0 0 1-.21.209h-3.769a.21.21 0 0 1-.21-.21v-2.723a.21.21 0 0 1 .21-.21h3.77a.21.21 0 0 1 .21.21" style="fill:#b7b7b7;fill-opacity:1;stroke-width:.264583" transform="translate(-53.872 -4.379)"/><path d="M63.404 51.589a1.31 1.31 0 0 1-1.31 1.31h-1.047a1.31 1.31 0 0 1 0-2.62h1.047a1.31 1.31 0 0 1 1.31 1.31M63.457 50.018h-.393a.21.21 0 0 0-.148.357l.393.393a.21.21 0 0 0 .358-.147v-.394a.21.21 0 0 0-.21-.21M63.666 52.95v-.392a.21.21 0 0 0-.358-.148l-.393.393a.21.21 0 0 0 .147.358h.395a.21.21 0 0 0 .21-.21" style="fill:#363a44;fill-opacity:1;stroke-width:.264583" transform="translate(-53.872 -4.379)"/><path d="M59.697 53.16h.393a.21.21 0 0 0 .147-.358l-.393-.392a.21.21 0 0 0-.357.148v.394a.21.21 0 0 0 .21.209M59.487 50.227v.393a.21.21 0 0 0 .357.148l.393-.393a.21.21 0 0 0-.147-.358h-.394a.21.21 0 0 0-.21.21" style="fill:#363a44;fill-opacity:1;stroke-width:.264583" transform="translate(-53.872 -4.379)"/><path d="M63.666 50.227v2.724a.21.21 0 0 1-.21.209h-3.769a.21.21 0 0 1-.21-.21v-2.723a.21.21 0 0 1 .21-.21h3.77a.21.21 0 0 1 .21.21" style="fill:#b7b7b7;fill-opacity:1;stroke-width:.264583" transform="translate(-43.882 -4.379)"/><path d="M63.404 51.589a1.31 1.31 0 0 1-1.31 1.31h-1.047a1.31 1.31 0 0 1 0-2.62h1.047a1.31 1.31 0 0 1 1.31 1.31M63.457 50.018h-.393a.21.21 0 0 0-.148.357l.393.393a.21.21 0 0 0 .358-.147v-.394a.21.21 0 0 0-.21-.21M63.666 52.95v-.392a.21.21 0 0 0-.358-.148l-.393.393a.21.21 0 0 0 .147.358h.395a.21.21 0 0 0 .21-.21" style="fill:#363a44;fill-opacity:1;stroke-width:.264583" transform="translate(-43.882 -4.379)"/><path d="M59.697 53.16h.393a.21.21 0 0 0 .147-.358l-.393-.392a.21.21 0 0 0-.357.148v.394a.21.21 0 0 0 .21.209M59.487 50.227v.393a.21.21 0 0 0 .357.148l.393-.393a.21.21 0 0 0-.147-.358h-.394a.21.21 0 0 0-.21.21" style="fill:#363a44;fill-opacity:1;stroke-width:.264583" transform="translate(-43.882 -4.379)"/><path d="M-43.659 5.087h.9v.8h-.9z" style="fill:url(#p);stroke-width:1.2;stroke-linecap:round;paint-order:stroke fill markers" transform="rotate(-90)"/><path d="M-41.159 5.087h.9v.8h-.9z" style="fill:url(#q);stroke-width:1.2;stroke-linecap:round;paint-order:stroke fill markers" transform="rotate(-90)"/><path d="M-43.659 7.087h.9v.8h-.9z" style="fill:url(#r);stroke-width:1.2;stroke-linecap:round;paint-order:stroke fill markers" transform="rotate(-90)"/><path d="M-41.159 7.087h.9v.8h-.9z" style="fill:url(#s);stroke-width:1.2;stroke-linecap:round;paint-order:stroke fill markers" transform="rotate(-90)"/><path d="M-43.459 4.987h3v3h-3z" style="fill:#fff;fill-opacity:1;stroke-width:1.20001;stroke-linecap:round;paint-order:stroke fill markers" transform="rotate(-90)"/><path d="M16.075 32.093h3v2h-3z" style="fill:url(#t);fill-opacity:1;stroke-width:1.2;stroke-linecap:round;paint-order:stroke fill markers"/><path d="M20.029 40.729h2v1h-2z" style="fill:url(#u);fill-opacity:1;stroke-width:1.2;stroke-linecap:round;paint-order:stroke fill markers"/><path d="M13.5 49.26h3v1.6h-3z" style="fill:url(#v);fill-opacity:1;stroke-width:1.2;stroke-linecap:round;paint-order:stroke fill markers"/><path d="M8.9 49.26h3v1.6h-3z" style="fill:url(#w);fill-opacity:1;stroke-width:1.2;stroke-linecap:round;paint-order:stroke fill markers"/><path d="M12.731 30.506h2.4v2.4h-2.4z" style="fill:url(#x);fill-opacity:1;stroke-width:1.2;stroke-linecap:round;paint-order:stroke fill markers"/><circle cx="6.487" cy="41.959" r="1.052" style="fill:#7c7c7c;fill-opacity:1;stroke-width:1.2;stroke-linecap:round;paint-order:stroke fill markers"/><path d="M6.487 40.906q-.177.002-.343.06l.006.047v.742l.157.156h.414l.266-.206h.522a1.05 1.05 0 0 0-1.022-.799m-.457.107c-.3.145-.513.424-.575.752h.575zm.99.898-.215.157v.43l.14.149.009.253a1.05 1.05 0 0 0 .585-.994zm-1.582 0-.003.048c0 .581.471 1.052 1.052 1.052q.102 0 .203-.022v-.908h-.423l-.17-.17z" style="fill:#585858;fill-opacity:1;stroke-width:1.2;stroke-linecap:round;paint-order:stroke fill markers"/><path d="M39.423 30.84h1.54l.5.5v1.54l-.5.5h-1.54l-.5-.5v-1.54z" style="fill:url(#y);fill-opacity:1;stroke-width:1.2;stroke-linecap:round;paint-order:stroke fill markers" transform="translate(-35.324 -.78)"/><path d="M39.423 30.84h1.54l.5.5v1.54l-.5.5h-1.54l-.5-.5v-1.54z" style="fill:url(#z);fill-opacity:1;stroke-width:1.2;stroke-linecap:round;paint-order:stroke fill markers" transform="translate(-32.784 -.817)"/><path d="M4.549 31.003h.64v2h-.64z" style="fill:url(#A);stroke-width:1.2;stroke-linecap:round;paint-order:stroke fill markers"/><path d="M7.089 31.003h.64v2h-.64z" style="fill:url(#B);stroke-width:1.2;stroke-linecap:round;paint-order:stroke fill markers"/><path d="M3.6 33.003v3.924h.344v.438h-.345v.74h1.762v-.74a.778.778 0 1 1 1.556 0v.74H8.68v-.74h-.345v-.438h.345v-3.924z" style="fill:url(#C);fill-opacity:1;stroke-width:1.2;stroke-linecap:round;paint-order:stroke fill markers"/><rect width="8.64" height="8" x="1.28" y="52.862" rx=".2" ry=".2" style="fill:#929292;fill-opacity:1;stroke-width:1.2;stroke-linecap:round;paint-order:stroke fill markers"/><rect width="8.64" height="8" x="15.48" y="52.862" rx=".2" ry=".2" style="fill:#929292;fill-opacity:1;stroke-width:1.2;stroke-linecap:round;paint-order:stroke fill markers"/><rect width="2" height="1.2" x="1.944" y="53.71" rx=".2" ry=".2" style="fill:#363a44;fill-opacity:1;stroke-width:1.2;stroke-linecap:round;paint-order:stroke fill markers"/><rect width="2" height="1.2" x="7.256" y="53.669" rx=".2" ry=".2" style="fill:#363a44;fill-opacity:1;stroke-width:1.2;stroke-linecap:round;paint-order:stroke fill markers"/><rect width="2" height="1" x="4.6" y="54.748" rx=".2" ry=".2" style="fill:#363a44;fill-opacity:1;stroke-width:1.2;stroke-linecap:round;paint-order:stroke fill markers"/><rect width="2" height="1.2" x="16.144" y="53.669" rx=".2" ry=".2" style="fill:#363a44;fill-opacity:1;stroke-width:1.2;stroke-linecap:round;paint-order:stroke fill markers"/><rect width="2" height="1.2" x="21.456" y="53.627" rx=".2" ry=".2" style="fill:#363a44;fill-opacity:1;stroke-width:1.2;stroke-linecap:round;paint-order:stroke fill markers"/><rect width="2" height="1" x="18.8" y="54.706" rx=".2" ry=".2" style="fill:#363a44;fill-opacity:1;stroke-width:1.2;stroke-linecap:round;paint-order:stroke fill markers"/><path d="M28.742 24.752v7.74a.268.268 0 0 1 0 .536v.734a.268.268 0 0 1 0 .536v.734a.268.268 0 0 1 0 .536v.734a.268.268 0 0 1 0 .536v.734a.268.268 0 0 1 0 .537v.733a.268.268 0 0 1 0 .537v.734a.268.268 0 0 1 0 .536v.734a.268.268 0 0 1 0 .536v.734a.268.268 0 0 1 0 .536v.734a.268.268 0 0 1 0 .537v.734a.268.268 0 0 1 0 .536v.734a.268.268 0 0 1 0 .536v.734a.268.268 0 0 1 0 .536v.734a.268.268 0 0 1 0 .537v2.711h18V49.54h-.004a.268.268 0 0 1 0-.536h.004v-.734h-.004a.268.268 0 0 1 0-.536h.004V47h-.004a.268.268 0 0 1 0-.536h.004v-.735h-.004a.268.268 0 0 1 0-.535h.004v-.735h-.004a.268.268 0 0 1 0-.536h.004v-.734h-.004a.268.268 0 0 1 0-.536h.004v-.734h-.004a.268.268 0 0 1 0-.536h.004v-.734h-.004a.268.268 0 0 1 0-.536h.004v-.735h-.004a.268.268 0 0 1 0-.536l.004.001v-.735h-.004a.268.268 0 0 1 0-.536h.004v-.734h-.004a.268.268 0 0 1 0-.536h.004v-.734h-.004a.268.268 0 0 1 0-.536h.004v-.734h-.004a.268.268 0 0 1 0-.536h.004v-.735h-.004a.268.268 0 0 1 0-.536l.004.001v-7.74z" style="opacity:1;fill:#2d2d2d;fill-opacity:1;stroke-width:1.2;stroke-linecap:round;paint-order:stroke fill markers" transform="translate(-25.042 -24.752)"/><path d="M28.742 32.31v.181a.268.268 0 1 1 0 .537v.182h.45v-.9zm18 0h-.45v.9h.45v-.182a.268.268 0 1 1 0-.537zm-18 2.17h.45v-.9h-.45v.182a.268.268 0 1 1 0 .536zm18 0v-.182a.268.268 0 1 1 0-.536v-.182h-.45v.9zm-18 .37v.182a.268.268 0 1 1 0 .536v.182h.45v-.9zm18 0h-.45v.9h.45v-.182a.268.268 0 1 1 0-.536zm-18 2.17h.45v-.9h-.45v.182a.268.268 0 1 1 0 .536zm18 0v-.182a.268.268 0 1 1 0-.536v-.182h-.45v.9zm-18 .37v.182a.268.268 0 1 1 0 .537v.182h.45v-.9zm18 0h-.45v.9h.45v-.181a.268.268 0 1 1 0-.537zm-18 2.17h.45v-.9h-.45v.182a.268.268 0 1 1 0 .537zm18 0v-.181a.268.268 0 1 1 0-.537v-.181h-.45v.9zm-18 .37v.183a.268.268 0 1 1 0 .536v.182h.45v-.9Zm18 0h-.45v.901h.45v-.182a.268.268 0 1 1 0-.536zm-18 2.171h.45v-.9h-.45v.182a.268.268 0 1 1 0 .536zm18 0v-.182a.268.268 0 1 1 0-.536V41.2h-.45v.9zm-18 .37v.182a.268.268 0 1 1 0 .536v.182h.45v-.9zm18 0h-.45v.9h.45v-.182a.268.268 0 1 1 0-.536zm-18 2.17h.45v-.9h-.45v.182a.268.268 0 1 1 0 .537zm18 0v-.181a.268.268 0 1 1 0-.537v-.182h-.45v.9zm-18 .37v.182a.268.268 0 1 1 0 .537v.182h.45v-.9zm18 0h-.45v.9h.45v-.181a.268.268 0 1 1 0-.537zm-18 2.171h.45v-.9h-.45v.182a.268.268 0 1 1 0 .536zm18 0V47a.268.268 0 1 1 0-.536v-.182h-.45v.9zm-18 .37v.182a.268.268 0 1 1 0 .536v.182h.45v-.9Zm18 0h-.45v.9h.45v-.182a.268.268 0 1 1 0-.536zm-18 2.17h.45v-.9h-.45v.182a.268.268 0 1 1 0 .536zm18 0v-.182a.268.268 0 1 1 0-.536v-.182h-.45v.9z" style="display:inline;opacity:1;fill:#d6b142;fill-opacity:1;stroke-width:1.2;stroke-linecap:round;paint-order:stroke fill markers" transform="translate(-25.042 -24.752)"/><path d="M29.842 32.031h15.8v19.7h-15.8z" style="opacity:1;fill:url(#D);stroke-width:1.2;stroke-linecap:round;paint-order:stroke fill markers" transform="translate(-25.042 -24.752)"/><path d="M31.312 25.543v-.435h-2.057v1.614h5.024v5.31h.847v-1.987h9.516v1.986h.475V29.57h-9.969v-4.094h1.619v3.05h1.993v-3.093h1.234v3.093h1.881v-3.05h1.354v3.05h1.888v-3.06h.599v-.358h-.91v3.038h-1.244v-3.038h-2.087v3.038h-1.1v-3.038H38.38v3.038h-1.235v-3.038h-5.35v.862h2.486v.372h-4.38v-.8z" style="opacity:1;fill:#252525;fill-opacity:1;stroke-width:1.2;stroke-linecap:round;paint-order:stroke fill markers" transform="translate(-25.042 -24.752)"/></svg>