<svg xmlns="http://www.w3.org/2000/svg" xmlns:xlink="http://www.w3.org/1999/xlink" xml:space="preserve" width="96" height="230.031" viewBox="0 0 25.4 60.862"><defs><linearGradient id="a"><stop offset="0" style="stop-color:#d6b142;stop-opacity:1"/></linearGradient><linearGradient xlink:href="#a" id="f" x1="135.493" x2="140.403" y1="68.213" y2="68.213" gradientTransform="translate(-3.41 -3.717)" gradientUnits="userSpaceOnUse"/><linearGradient xlink:href="#a" id="g" x1="135.493" x2="140.403" y1="68.213" y2="68.213" gradientTransform="translate(5.23 -3.717)" gradientUnits="userSpaceOnUse"/><linearGradient xlink:href="#a" id="h" x1="135.493" x2="140.403" y1="68.213" y2="68.213" gradientTransform="translate(5.23 .494)" gradientUnits="userSpaceOnUse"/><linearGradient xlink:href="#a" id="i" x1="135.493" x2="140.403" y1="68.213" y2="68.213" gradientTransform="translate(-3.41 .494)" gradientUnits="userSpaceOnUse"/><linearGradient xlink:href="#a" id="b" x1="135.493" x2="140.403" y1="68.213" y2="68.213" gradientTransform="translate(-3.41 -3.717)" gradientUnits="userSpaceOnUse"/><linearGradient xlink:href="#a" id="c" x1="135.493" x2="140.403" y1="68.213" y2="68.213" gradientTransform="translate(5.23 -3.717)" gradientUnits="userSpaceOnUse"/><linearGradient xlink:href="#a" id="d" x1="135.493" x2="140.403" y1="68.213" y2="68.213" gradientTransform="translate(5.23 .494)" gradientUnits="userSpaceOnUse"/><linearGradient xlink:href="#a" id="e" x1="135.493" x2="140.403" y1="68.213" y2="68.213" gradientTransform="translate(-3.41 .494)" gradientUnits="userSpaceOnUse"/></defs><rect width="8.64" height="8" x="1.28" y="52.862" rx=".2" ry=".2" style="fill:#929292;fill-opacity:1;stroke-width:1.2;stroke-linecap:round;paint-order:stroke fill markers"/><rect width="8.64" height="8" x="15.48" y="52.862" rx=".2" ry=".2" style="fill:#929292;fill-opacity:1;stroke-width:1.2;stroke-linecap:round;paint-order:stroke fill markers"/><path d="M28.742 24.752h17.996v7.74H28.742z" style="fill:#2d2d2d;fill-opacity:1;stroke-width:1.2;stroke-linecap:round;paint-order:stroke fill markers" transform="translate(-25.042 -24.752)"/><rect width="25.4" height="53.6" y="6.56" rx=".6" ry=".6" style="fill:#212121;fill-opacity:1;stroke-width:1.2;stroke-linecap:round;paint-order:stroke fill markers"/><path d="M.97 7.56h.6c.388 0 .7.312.7.7s-.312.7-.7.7h-.6a.7.7 0 0 1-.7-.7c0-.388.312-.7.7-.7m22.86 0h.6c.388 0 .7.312.7.7s-.312.7-.7.7h-.6a.7.7 0 0 1-.7-.7c0-.388.312-.7.7-.7M.97 10.1h.6c.388 0 .7.312.7.7s-.312.7-.7.7h-.6a.7.7 0 0 1-.7-.7c0-.388.312-.7.7-.7m22.86 0h.6c.388 0 .7.312.7.7s-.312.7-.7.7h-.6a.7.7 0 0 1-.7-.7c0-.388.312-.7.7-.7M.97 12.64h.6c.388 0 .7.312.7.7s-.312.7-.7.7h-.6a.7.7 0 0 1-.7-.7c0-.388.312-.7.7-.7m22.86 0h.6c.388 0 .7.312.7.7s-.312.7-.7.7h-.6a.7.7 0 0 1-.7-.7c0-.388.312-.7.7-.7M.97 15.18h.6c.388 0 .7.312.7.7s-.312.7-.7.7h-.6a.7.7 0 0 1-.7-.7c0-.388.312-.7.7-.7m22.86 0h.6c.388 0 .7.312.7.7s-.312.7-.7.7h-.6a.7.7 0 0 1-.7-.7c0-.388.312-.7.7-.7M.97 17.72h.6c.388 0 .7.312.7.7s-.312.7-.7.7h-.6a.7.7 0 0 1-.7-.7c0-.388.312-.7.7-.7m22.86 0h.6c.388 0 .7.312.7.7s-.312.7-.7.7h-.6a.7.7 0 0 1-.7-.7c0-.388.312-.7.7-.7M.97 20.26h.6c.388 0 .7.312.7.7s-.312.7-.7.7h-.6a.7.7 0 0 1-.7-.7c0-.388.312-.7.7-.7m22.86 0h.6c.388 0 .7.312.7.7s-.312.7-.7.7h-.6a.7.7 0 0 1-.7-.7c0-.388.312-.7.7-.7M.97 22.8h.6c.388 0 .7.312.7.7s-.312.7-.7.7h-.6a.7.7 0 0 1-.7-.7c0-.388.312-.7.7-.7m22.86 0h.6c.388 0 .7.312.7.7s-.312.7-.7.7h-.6a.7.7 0 0 1-.7-.7c0-.388.312-.7.7-.7M.97 25.34h.6c.388 0 .7.312.7.7s-.312.7-.7.7h-.6a.7.7 0 0 1-.7-.7c0-.388.312-.7.7-.7m22.86 0h.6c.388 0 .7.312.7.7s-.312.7-.7.7h-.6a.7.7 0 0 1-.7-.7c0-.388.312-.7.7-.7M.97 27.88h.6c.388 0 .7.312.7.7s-.312.7-.7.7h-.6a.7.7 0 0 1-.7-.7c0-.388.312-.7.7-.7m22.86 0h.6c.388 0 .7.312.7.7s-.312.7-.7.7h-.6a.7.7 0 0 1-.7-.7c0-.388.312-.7.7-.7M.97 30.42h.6c.388 0 .7.312.7.7s-.312.7-.7.7h-.6a.7.7 0 0 1-.7-.7c0-.388.312-.7.7-.7m22.86 0h.6c.388 0 .7.312.7.7s-.312.7-.7.7h-.6a.7.7 0 0 1-.7-.7c0-.388.312-.7.7-.7M.97 32.96h.6c.388 0 .7.312.7.7s-.312.7-.7.7h-.6a.7.7 0 0 1-.7-.7c0-.388.312-.7.7-.7m22.86 0h.6c.388 0 .7.312.7.7s-.312.7-.7.7h-.6a.7.7 0 0 1-.7-.7c0-.388.312-.7.7-.7M.97 35.5h.6c.388 0 .7.312.7.7s-.312.7-.7.7h-.6a.7.7 0 0 1-.7-.7c0-.388.312-.7.7-.7m22.86 0h.6c.388 0 .7.312.7.7s-.312.7-.7.7h-.6a.7.7 0 0 1-.7-.7c0-.388.312-.7.7-.7M.97 38.04h.6c.388 0 .7.312.7.7s-.312.7-.7.7h-.6a.7.7 0 0 1-.7-.7c0-.388.312-.7.7-.7m22.86 0h.6c.388 0 .7.312.7.7s-.312.7-.7.7h-.6a.7.7 0 0 1-.7-.7c0-.388.312-.7.7-.7M.97 40.58h.6c.388 0 .7.312.7.7s-.312.7-.7.7h-.6a.7.7 0 0 1-.7-.7c0-.388.312-.7.7-.7m22.86 0h.6c.388 0 .7.312.7.7s-.312.7-.7.7h-.6a.7.7 0 0 1-.7-.7c0-.388.312-.7.7-.7M.97 43.12h.6c.388 0 .7.312.7.7s-.312.7-.7.7h-.6a.7.7 0 0 1-.7-.7c0-.388.312-.7.7-.7m22.86 0h.6c.388 0 .7.312.7.7s-.312.7-.7.7h-.6a.7.7 0 0 1-.7-.7c0-.388.312-.7.7-.7M.97 45.66h.6c.388 0 .7.312.7.7s-.312.7-.7.7h-.6a.7.7 0 0 1-.7-.7c0-.388.312-.7.7-.7m22.86 0h.6c.388 0 .7.312.7.7s-.312.7-.7.7h-.6a.7.7 0 0 1-.7-.7c0-.388.312-.7.7-.7" style="fill:#d6b142;fill-opacity:1;stroke-width:1.2;stroke-linecap:round;paint-order:stroke fill markers"/><path d="M132.583 61.426c-.277 0-.5.222-.5.5v1.1a.499.499 0 1 0 1 0v-1.1c0-.278-.223-.5-.5-.5m0 .2c.166 0 .3.133.3.3v1.1c0 .166-.134.3-.3.3a.3.3 0 0 1-.3-.3v-1.1a.3.3 0 0 1 .3-.3" style="opacity:1;fill:url(#b);stroke-width:1.2;stroke-linecap:round;paint-order:stroke fill markers" transform="translate(-131.303 -8.765)"/><path d="M141.223 61.426c-.277 0-.5.222-.5.5v1.1a.499.499 0 1 0 1 0v-1.1c0-.278-.223-.5-.5-.5m0 .2c.166 0 .3.133.3.3v1.1c0 .166-.134.3-.3.3a.3.3 0 0 1-.3-.3v-1.1a.3.3 0 0 1 .3-.3" style="fill:url(#c);stroke-width:1.2;stroke-linecap:round;paint-order:stroke fill markers" transform="translate(-131.303 -8.765)"/><path d="M141.223 65.636c-.277 0-.5.223-.5.5v.8a.499.499 0 1 0 1 0v-.8c0-.277-.223-.5-.5-.5m0 .2c.166 0 .3.134.3.3v.8c0 .167-.134.3-.3.3a.3.3 0 0 1-.3-.3v-.8a.3.3 0 0 1 .3-.3" style="fill:url(#d);stroke-width:1.2;stroke-linecap:round;paint-order:stroke fill markers" transform="translate(-131.303 -8.765)"/><path d="M132.583 65.636c-.277 0-.5.223-.5.5v.8a.499.499 0 1 0 1 0v-.8c0-.277-.223-.5-.5-.5m0 .2c.166 0 .3.134.3.3v.8c0 .167-.134.3-.3.3a.3.3 0 0 1-.3-.3v-.8a.3.3 0 0 1 .3-.3" style="fill:url(#e);stroke-width:1.2;stroke-linecap:round;paint-order:stroke fill markers" transform="translate(-131.303 -8.765)"/><path d="M132.583 61.426c-.277 0-.5.222-.5.5v1.1a.499.499 0 1 0 1 0v-1.1c0-.278-.223-.5-.5-.5m0 .2c.166 0 .3.133.3.3v1.1c0 .166-.134.3-.3.3a.3.3 0 0 1-.3-.3v-1.1a.3.3 0 0 1 .3-.3" style="opacity:1;fill:url(#f);stroke-width:1.2;stroke-linecap:round;paint-order:stroke fill markers" transform="translate(-117.103 -8.765)"/><path d="M141.223 61.426c-.277 0-.5.222-.5.5v1.1a.499.499 0 1 0 1 0v-1.1c0-.278-.223-.5-.5-.5m0 .2c.166 0 .3.133.3.3v1.1c0 .166-.134.3-.3.3a.3.3 0 0 1-.3-.3v-1.1a.3.3 0 0 1 .3-.3" style="fill:url(#g);stroke-width:1.2;stroke-linecap:round;paint-order:stroke fill markers" transform="translate(-117.103 -8.765)"/><path d="M141.223 65.636c-.277 0-.5.223-.5.5v.8a.499.499 0 1 0 1 0v-.8c0-.277-.223-.5-.5-.5m0 .2c.166 0 .3.134.3.3v.8c0 .167-.134.3-.3.3a.3.3 0 0 1-.3-.3v-.8a.3.3 0 0 1 .3-.3" style="fill:url(#h);stroke-width:1.2;stroke-linecap:round;paint-order:stroke fill markers" transform="translate(-117.103 -8.765)"/><path d="M132.583 65.636c-.277 0-.5.223-.5.5v.8a.499.499 0 1 0 1 0v-.8c0-.277-.223-.5-.5-.5m0 .2c.166 0 .3.134.3.3v.8c0 .167-.134.3-.3.3a.3.3 0 0 1-.3-.3v-.8a.3.3 0 0 1 .3-.3" style="fill:url(#i);stroke-width:1.2;stroke-linecap:round;paint-order:stroke fill markers" transform="translate(-117.103 -8.765)"/></svg>